<svg xmlns="http://www.w3.org/2000/svg" xmlns:xlink="http://www.w3.org/1999/xlink" version="1.1" width="444.531" height="444.531" style="enable-background:new 0 0 444.531 444.531;" xml:space="preserve"><rect id="backgroundrect" width="100%" height="100%" x="0" y="0" fill="none" stroke="none"/>
















<g class="currentLayer" style=""><title>Layer 1</title><g id="svg_1" class="selected" fill="#ffffff" fill-opacity="1" stroke="#dadada" stroke-opacity="1">
	<path d="M213.13,222.409L351.88,83.653c7.05-7.043,10.567-15.657,10.567-25.841c0-10.183-3.518-18.793-10.567-25.835   l-21.409-21.416C323.432,3.521,314.817,0,304.637,0s-18.791,3.521-25.841,10.561L92.649,196.425   c-7.044,7.043-10.566,15.656-10.566,25.841s3.521,18.791,10.566,25.837l186.146,185.864c7.05,7.043,15.66,10.564,25.841,10.564   s18.795-3.521,25.834-10.564l21.409-21.412c7.05-7.039,10.567-15.604,10.567-25.697c0-10.085-3.518-18.746-10.567-25.978   L213.13,222.409z" id="svg_2" fill="#ffffff" fill-opacity="1" stroke="#dadada" stroke-opacity="1"/>
</g><g id="svg_3">
</g><g id="svg_4">
</g><g id="svg_5">
</g><g id="svg_6">
</g><g id="svg_7">
</g><g id="svg_8">
</g><g id="svg_9">
</g><g id="svg_10">
</g><g id="svg_11">
</g><g id="svg_12">
</g><g id="svg_13">
</g><g id="svg_14">
</g><g id="svg_15">
</g><g id="svg_16">
</g><g id="svg_17">
</g></g></svg>